# xmcd
#
# Track frame offsets:
#	150
#	11207
#	21470
#	30460
#	40347
#	49292
#	59432
#	73762
#	83790
#	96135
#	109902
#	119580
#	127792
#	139727
#
# Disc length: 2018
#
# Revision: 1
# Processed by: cddbd v1.5.1PL0 Copyright (c) Steve Scherf et al.
# Submitted via: audiograbber 1.83.01
# Normalized: r0:DSETVAR2
#
DISCID=c707e00e
DTITLE=Various Artist - Country and Western CD2
DYEAR=1900
DGENRE=Country
TTITLE0=Jerry Lee Lewis - Another place, another time
TTITLE1=Rusty Draper - More and more
TTITLE2=Roy Drusky - Abelene
TTITLE3=Dave Dudley - Truck drivin'son-of-a-gun
TTITLE4=Faron Young - Rawhide
TTITLE5=Jerry Lee Lewis and Linda Gail Lewis - We live in two different worlds
TTITLE6=Roger Miller - Green green grass of home
TTITLE7=George Jones - I'll be there
TTITLE8=Lester Flatt and Earl Scruggs - Foggy mountain breakdown
TTITLE9=Tom T. Hall - Ballad of forty dollars
TTITLE10=Roy Drusky and Priscilla Mitchell - Let's do what's right even if it's wrong
TTITLE11=Roger Miller - Dang me
TTITLE12=Roger Miller - Little green apples
TTITLE13=Roger Miller - By the time i get to phoenix
EXTD=
EXTT0=
EXTT1=
EXTT2=
EXTT3=
EXTT4=
EXTT5=
EXTT6=
EXTT7=
EXTT8=
EXTT9=
EXTT10=
EXTT11=
EXTT12=
EXTT13=
PLAYORDER=
